<?xml version="1.0" encoding="UTF-8" standalone="no"?>
<!-- Created with Inkscape (http://www.inkscape.org/) -->

<svg
   width="249.99998"
   height="250.00002"
   viewBox="0 0 66.145828 66.145837"
   version="1.1"
   id="svg1"
   xml:space="preserve"
   inkscape:export-filename="icon-192.png"
   inkscape:export-xdpi="73.727997"
   inkscape:export-ydpi="73.727997"
   xmlns:inkscape="http://www.inkscape.org/namespaces/inkscape"
   xmlns:sodipodi="http://sodipodi.sourceforge.net/DTD/sodipodi-0.dtd"
   xmlns="http://www.w3.org/2000/svg"
   xmlns:svg="http://www.w3.org/2000/svg"><sodipodi:namedview
     id="namedview1"
     pagecolor="#ffffff"
     bordercolor="#000000"
     borderopacity="0.25"
     inkscape:showpageshadow="2"
     inkscape:pageopacity="0.0"
     inkscape:pagecheckerboard="0"
     inkscape:deskcolor="#d1d1d1"
     inkscape:document-units="mm"><inkscape:page
       x="0"
       y="0"
       width="66.145828"
       height="66.145836"
       id="page2"
       margin="0"
       bleed="0" /></sodipodi:namedview><defs
     id="defs1" /><g
     inkscape:groupmode="layer"
     id="layer2"
     inkscape:label="Layer 2"><g
       id="g6"
       transform="translate(2.5968363,0.2253861)"><g
         id="g1"
         transform="translate(-4.1054332,-0.40555378)"><path
           d="m 28.40501,1.8579233 a 4.4725705,4.3701155 0 0 0 -4.472279,4.3704212 4.4725705,4.3701155 0 0 0 4.472279,4.3698095 4.4725705,4.3701155 0 0 0 3.024443,-1.1637536 l 1.447923,4.6359516 c 0.7202,-2.255734 -0.401895,-4.045 -1.146094,-4.9207339 A 4.4725705,4.3701155 0 0 0 32.877376,6.2283149 4.4725705,4.3701155 0 0 0 28.405097,1.8578937 Z"
           fill="#f23a30"
           style="stroke-width:0.299045;paint-order:stroke fill markers"
           id="path1" /><path
           d="M 67.035601,37.64932 A 32.454086,26.998952 0 0 1 34.581514,64.648275 32.454086,26.998952 0 0 1 2.1274261,37.64932 32.454086,26.998952 0 0 1 34.581514,10.650368 32.454086,26.998952 0 0 1 67.035601,37.64932 Z"
           fill="#f23a30"
           id="path2"
           style="stroke-width:0.299045" /></g><g
         id="g5"><g
           id="g4"
           transform="matrix(0.8637052,0,0,0.8637052,7.3699756,7.7728891)"><g
             id="g3"
             transform="matrix(6.9876544,0,0,6.9876544,-188.943,-189.92776)"><g
               style="fill:none;stroke:#eae3f5;stroke-width:2;stroke-linecap:round;stroke-linejoin:round"
               id="g2"
               transform="matrix(0.26458333,0,0,0.26458333,27.560764,28.88858)"><path
                 d="M 21,10.656 V 19 a 2,2 0 0 1 -2,2 H 5 A 2,2 0 0 1 3,19 V 5 A 2,2 0 0 1 5,3 h 12.344"
                 id="path1-5" /><path
                 d="M 9,11 12,14 22,4"
                 id="path2-2" /></g></g></g></g></g></g></svg>
